<svg data-testid="icon" name="edit" size="14" version="1.1" xmlns="http://www.w3.org/2000/svg" viewBox="0 0 32 32" class="style__Icon-sc-__sc-hqksj3-1 lobTxL"><path d="M30.683 1.316c0.839 0.854 1.316 1.996 1.316 3.197s-0.477 2.344-1.331 3.183l-13.743 13.743c-0.174 0.174-0.405 0.318-0.665 0.376l-5.787 1.447c-0.492 0.13-1.013-0.014-1.374-0.376s-0.506-0.882-0.376-1.374l1.447-5.787c0.058-0.246 0.188-0.477 0.376-0.665l13.743-13.743c0.854-0.839 1.996-1.316 3.197-1.316s2.344 0.477 3.197 1.316zM15.175 19.11l13.454-13.454c0.304-0.304 0.477-0.723 0.477-1.143s-0.174-0.839-0.477-1.143c-0.304-0.304-0.723-0.477-1.143-0.477s-0.839 0.174-1.143 0.477l-13.454 13.454-0.767 3.052 3.052-0.767zM4.34 3.067h10.127c0.796 0 1.447 0.651 1.447 1.447s-0.651 1.447-1.447 1.447h-10.127c-0.391 0-0.752 0.145-1.027 0.42s-0.42 0.637-0.42 1.027v20.253c0 0.391 0.145 0.752 0.42 1.027 0.275 0.26 0.637 0.42 1.027 0.42h20.253c0.391 0 0.752-0.145 1.027-0.42s0.42-0.637 0.42-1.027v-10.127c0-0.796 0.651-1.447 1.447-1.447s1.447 0.651 1.447 1.447v10.127c0 1.143-0.463 2.257-1.273 3.067s-1.91 1.273-3.067 1.273h-20.253c-1.157 0-2.257-0.463-3.067-1.273s-1.273-1.91-1.273-3.067v-20.253c0-1.143 0.463-2.257 1.273-3.067s1.91-1.273 3.067-1.273z" class="style__Path-sc-__sc-hqksj3-2 lcjQMU"></path></svg>