<svg data-testid="icon" name="success" version="1.1" xmlns="http://www.w3.org/2000/svg" viewBox="0 0 32 32" class="style__Icon-sc-__sc-hqksj3-1 kjeCAS"><path d="M13.115 3.231c2.753-0.622 5.634-0.337 8.213 0.811 0.734 0.327 1.594-0.003 1.921-0.737s-0.003-1.594-0.737-1.921c-3.152-1.404-6.673-1.752-10.038-0.992s-6.395 2.588-8.637 5.211-3.576 5.9-3.803 9.343c-0.227 3.443 0.665 6.867 2.543 9.761s4.641 5.104 7.878 6.3c3.236 1.196 6.773 1.313 10.081 0.335s6.213-3 8.278-5.763 3.183-6.121 3.185-9.572v-1.338c0-0.803-0.651-1.455-1.455-1.455s-1.455 0.651-1.455 1.455v1.337c-0.002 2.823-0.916 5.57-2.606 7.831s-4.066 3.915-6.773 4.715c-2.707 0.8-5.6 0.704-8.248-0.274s-4.909-2.786-6.445-5.155c-1.536-2.368-2.266-5.17-2.081-7.986s1.277-5.498 3.111-7.644 4.313-3.641 7.066-4.264zM31.575 5.4c0.568-0.568 0.567-1.489-0.001-2.057s-1.489-0.567-2.057 0.001l-13.517 13.53-3.335-3.335c-0.568-0.568-1.489-0.568-2.057 0s-0.568 1.489 0 2.057l4.364 4.364c0.273 0.273 0.643 0.426 1.029 0.426s0.756-0.154 1.029-0.427l14.545-14.56z" class="style__Path-sc-__sc-hqksj3-2 lcjQMU"></path></svg>